<?xml version="1.0"?>
<svg id="Layer_1" data-name="Layer 1" xmlns="http://www.w3.org/2000/svg" viewBox="0 0 418 200">
  <defs>
    
  </defs>
  <g>
    <path fill="#FFFFFF" d="M345.5,88.43c-5.17-.13-13.22-.94-19.11-7.13-6.79-7.13-6.92-15.38-7.58-21.77-.06-.58-.9-.58-.96,0-.66,6.4-.79,14.66-7.51,21.85-5.76,6.16-13.88,6.95-19.11,7.06-.58.01-.65.86-.07.96,5.82,1.02,12.9,2.34,19.19,9.06,5.35,5.71,6.95,13.19,7.54,18.79.06.57.89.57.96,0,.65-5.54,2.33-12.92,7.57-18.68,6.21-6.83,13.33-8.16,19.17-9.18.57-.1.51-.94-.07-.96ZM323.52,95.25c-5.05,5.55-4.96,11.02-5.2,13.77-.23-2.75,0-8.36-5.14-13.84-5.14-5.49-8.69-5.26-12.77-6.26,1.97-.26,7.63.77,12.77-4.73,5.14-5.5,4.28-9.56,5.14-13.83.86,4.27,0,8.33,5.19,13.78,5.25,5.51,10.74,4.52,12.72,4.78-4.08,1-7.65.77-12.71,6.33Z"></path>
    <g>
      <path fill="#FFFFFF" d="M295.04,146.03c-3.81,0-7.68-.68-11.34-2-4.79-1.73-9.23-4.57-12.85-8.23-3.14-3.17-5.88-7.43-7.72-12-2.11-5.24-2.97-10.68-2.49-15.75.39-4.08,1.62-7.91,3.68-11.38,2.26-3.82,5.51-7.2,9.66-10.05,2.09-1.44,5.24-2.94,8.58-4.53,5.19-2.48,11.07-5.28,14.09-8.32l.08-.08c3.48-3.17,5.62-7.36,7.89-11.8.74-1.45,1.5-2.94,2.32-4.39,1.42-2.69,2.85-4.68,4.37-6.1,3.18-2.98,6.2-2.89,8.17-2.28,5.23,1.62,7.44,5.63,9.78,9.88,1.8,3.27,3.84,6.99,7.67,10.73,4.15,4.07,7.93,6.16,11.28,8.02,4.31,2.39,8.03,4.45,9.39,9.55.53,1.96.54,4.96-2.36,8.09-1.42,1.53-3.39,2.95-6.05,4.36-1.45.81-2.95,1.58-4.39,2.32-4.44,2.27-8.63,4.41-11.8,7.89l-.08.08c-3.12,3.11-6.02,9.16-8.57,14.5-1.51,3.15-2.93,6.12-4.25,8.13-2.56,3.89-5.83,7.02-9.74,9.31-3.7,2.16-7.79,3.48-12.18,3.92-1.04.1-2.09.16-3.14.16ZM300.04,77.22c-3.62,3.61-9.87,6.59-15.4,9.23-3.16,1.51-6.15,2.93-7.92,4.15-6.79,4.67-10.58,10.69-11.27,17.91-.89,9.44,3.79,18.81,8.83,23.9,3.11,3.15,6.94,5.6,11.06,7.08,3.99,1.44,8.26,1.99,12.35,1.58,7.65-.76,14.17-4.69,18.36-11.07,1.14-1.74,2.49-4.57,3.93-7.56,2.71-5.67,5.78-12.09,9.48-15.8,3.76-4.1,8.52-6.54,13.13-8.89,1.42-.72,2.88-1.47,4.26-2.24l.05-.03c4.58-2.42,6.61-4.76,6.02-6.94-.8-2.99-2.86-4.24-7.07-6.57-3.43-1.9-7.7-4.27-12.32-8.79-4.33-4.25-6.65-8.46-8.52-11.85-2.37-4.3-3.75-6.6-6.97-7.59-2.08-.64-4.38,1.39-6.85,6.05l-.03.05c-.77,1.38-1.52,2.84-2.24,4.26-2.35,4.61-4.79,9.38-8.89,13.13Z"></path>
      <path fill="#FFFFFF" d="M307.69,151.21c-2.49,0-4.98-.18-7.45-.55-4.83-.69-9.59-2.11-14.13-4.21-4.5-2.08-8.69-4.79-12.46-8.04l-.02-.02c-8.17-7.24-14.05-16.54-16.55-26.18-2.2-7.77-2.38-16.3-.52-24.67,1.4-6.25,4.09-12.41,7.77-17.83,3.75-5.51,8.55-10.29,13.9-13.81,7.33-4.91,15.97-7.84,24.97-8.49h.05c5.39-.28,10.79.27,16.06,1.62,5.22,1.34,10.21,3.45,14.81,6.26,5.46,3.27,10.45,7.75,14.42,12.98,3.94,5.18,6.91,11.12,8.62,17.18,2.46,8.46,2.62,17.64.47,26.54-1.59,7.04-4.72,13.67-9.06,19.17-3.19,4.4-7.21,8.23-11.97,11.39-4.57,3.04-9.59,5.31-14.92,6.76-4.64,1.26-9.32,1.9-13.97,1.9ZM276.82,134.77c3.42,2.95,7.23,5.41,11.32,7.3,4.12,1.9,8.43,3.19,12.8,3.82,6.42.95,12.97.53,19.45-1.23,4.83-1.31,9.38-3.37,13.52-6.12,4.29-2.85,7.9-6.29,10.75-10.24l.06-.08c3.91-4.95,6.74-10.93,8.17-17.29v-.04c1.97-8.1,1.83-16.43-.4-24.09v-.02c-1.55-5.49-4.25-10.87-7.82-15.57-3.61-4.75-8.13-8.81-13.06-11.77h-.02c-4.2-2.58-8.74-4.5-13.51-5.72-4.79-1.23-9.7-1.73-14.59-1.48-8.28.6-15.88,3.19-22.61,7.69h-.01c-4.82,3.19-9.17,7.51-12.56,12.51-3.34,4.92-5.78,10.51-7.05,16.17-1.68,7.59-1.52,15.31.46,22.32v.05c2.28,8.72,7.63,17.17,15.09,23.79Z"></path>
      <path fill="#FFFFFF" d="M308.9,151.21c-.35,0-.69,0-1.04-.02l.16-4.83c9.08.3,17.07-3.78,21.94-11.19,1.14-1.74,2.49-4.57,3.93-7.56,2.71-5.67,5.78-12.09,9.48-15.8,3.41-3.72,7.72-6.11,11.83-8.23l2.21,4.3c-3.9,2.01-7.64,4.07-10.51,7.23l-.08.08c-3.12,3.11-6.02,9.16-8.57,14.5-1.51,3.15-2.93,6.12-4.25,8.13-2.97,4.52-6.88,7.99-11.62,10.32-4.1,2.01-8.74,3.07-13.47,3.07Z"></path>
      <path fill="#FFFFFF" d="M262.2,84.76l-3.98-2.73c2.16-3.14,4.92-5.83,8.2-7.99,2.01-1.32,4.98-2.74,8.13-4.25,5.34-2.55,11.39-5.45,14.5-8.57l.09-.08c3.48-3.17,5.62-7.36,7.89-11.8l.08-.15,4.3,2.2-.08.15c-2.35,4.61-4.79,9.38-8.89,13.14-3.7,3.7-10.13,6.77-15.8,9.48-3,1.43-5.83,2.79-7.56,3.93-2.76,1.81-5.07,4.06-6.87,6.69Z"></path>
      <path fill="#FFFFFF" d="M332.12,140.68c-3.92,0-7.44-1.15-10.64-3.46-4.72-3.41-8.16-8.85-11.81-14.61-3.31-5.23-6.72-10.63-11.31-14.85-2.77-2.54-6.79-4.84-11.04-7.28-4.24-2.43-8.63-4.94-12.24-7.96-4.34-3.63-6.86-7.46-7.71-11.71-1.27-6.36,1.22-13.47,7.61-21.73l.05-.06,1.56-1.89,3.73,3.07-1.53,1.86c-5.46,7.08-7.64,12.9-6.67,17.8,1.43,7.16,9.65,11.87,17.61,16.42,4.5,2.57,8.75,5.01,11.91,7.91,5.06,4.65,8.65,10.33,12.13,15.82,3.39,5.35,6.58,10.41,10.55,13.27,1.97,1.42,4.03,2.23,6.3,2.48,2.62.28,5.52-.18,8.88-1.39l1.65,4.54c-3.22,1.17-6.22,1.75-9.01,1.75Z"></path>
      <path fill="#FFFFFF" d="M314.99,150.28c-6.44-2.97-10.59-9.53-14.98-16.47-3.31-5.23-6.72-10.63-11.31-14.85-2.81-2.59-7.03-4.93-11.49-7.42-9.53-5.3-20.33-11.31-20.96-22.18l4.82-.28c.48,8.22,9.63,13.31,18.49,18.24,4.72,2.63,9.17,5.11,12.41,8.08,5.06,4.65,8.65,10.33,12.13,15.82,4,6.32,7.78,12.3,12.92,14.67l-2.02,4.39Z"></path>
      <path fill="#FFFFFF" d="M292.12,148.22c-.92-1.39-1.85-2.86-2.75-4.29-3.31-5.23-6.72-10.63-11.31-14.85-2.77-2.54-6.79-4.84-11.04-7.28-2.63-1.51-5.35-3.07-7.9-4.76l2.67-4.02c2.41,1.6,5.06,3.12,7.63,4.59,4.5,2.57,8.75,5.01,11.91,7.91,5.06,4.65,8.65,10.33,12.13,15.83.93,1.47,1.8,2.85,2.7,4.2l-4.03,2.67Z"></path>
    </g>
    <path fill="#F59E0B" d="M318.43,80.29c0,5.8,2.9,8.7,8.7,8.7-5.8,0-8.7,2.9-8.7,8.7,0-5.8-2.9-8.7-8.7-8.7,5.8,0,8.7-2.9,8.7-8.7Z"></path>
  </g>
  <g>
    <path fill="#FFFFFF" d="M144.73,112.1c-7.97,0-14.41,2.25-18.56,4.51v22.56c0,3.98-1.86,4.62-7.09,4.62h-20.46c-3.5,0-5.24-1.07-5.24-3.87v-9.78c0-11.71-6.22-17.94-19.42-17.94-4.92,0-10.26,1.07-12.66,1.93v2.98c0,2.14,1.95,3.76,4.05,3.35,2.53-.5,5.57-.85,8.29-.85,8.18,0,11.79,3.76,11.79,11.17v8.38c0,3.98-1.64,4.62-6.99,4.62h-19.32v3.92c0,1.88,1.52,3.39,3.39,3.39h15.93c5.56,0,9.6-.53,12.12-2.69,1.96,1.83,4.8,2.69,8.08,2.69h20.46c5.56,0,9.6-.53,12.12-2.79,3.49,1.51,8.4,2.91,13.64,2.91h.66c12.77,0,18.66-6.34,18.66-17.63v-3.55c0-11.71-6.33-17.94-19.42-17.94ZM156.3,133.16c0,6.98-3.5,10.75-11.24,10.75h-.22c-5.13-.11-9.17-1.19-10.91-2.26v-19.88c1.2-.75,5.13-2.25,10.48-2.25,8.07,0,11.89,3.76,11.89,11.17v2.47Z"></path>
    <path fill="#FFFFFF" d="M214.25,91.57v48.47c0,9.35-5.02,11.07-14.84,11.07h-29.25v-2.97c0-2.39,1.94-4.34,4.34-4.34h6.47v-35.06c0-1.56,1.07-2.92,2.58-3.3l5.27-1.3v35.14c0,2.04-.87,3.65-3.38,4.3l-.87.21h14.84c5.35,0,6.98-.64,6.98-4.62v-43.01c0-1.56,1.07-2.92,2.58-3.3l5.27-1.3ZM191.33,92.75v.04c0,1.87-1.52,3.39-3.39,3.39h-10.25v-.6c0-1.57,1.27-2.84,2.84-2.84h0c-.65-.86-.87-1.93-.87-3.44v-.21c0-4.93,3.32-6.8,7.47-6.5,1.76.13,3.12,1.62,3.12,3.38v.96c-3.93-1.93-6.66-.86-6.66,2.04v1.4c0,1.4.98,2.36,2.62,2.36h5.13Z"></path>
    <path fill="#FFFFFF" d="M227.62,151.1v-54.94c0-1.56,1.07-2.92,2.58-3.3l5.27-1.3v56.14c0,1.87-1.52,3.39-3.39,3.39h-4.46Z"></path>
  </g>
</svg>